<svg width="13" height="14" fill="none" xmlns="http://www.w3.org/2000/svg"><g clip-path="url('#clip0_2_1962')"><g clip-path="url('#clip1_2_1962')"><g clip-path="url('#clip2_2_1962')"><path d="M5.18 11.598V7.795c0-.288 0-.432.057-.542a.514.514 0 0 1 .224-.224c.11-.056.254-.056.542-.056h1.439c.287 0 .431 0 .541.056.097.05.176.128.225.224.056.11.056.254.056.542v3.803m-6.68-5.91 4.645-3.484c.177-.133.265-.199.362-.225a.514.514 0 0 1 .262 0c.097.026.185.093.363.225l4.645 3.484m-9.25-.77v5.035c0 .576 0 .864.112 1.084.099.193.256.35.45.449.22.112.507.112 1.083.112h4.933c.575 0 .863 0 1.083-.112.194-.099.35-.256.45-.45.111-.22.111-.507.111-1.083V4.917L7.71 2.574c-.354-.265-.53-.398-.725-.45a1.028 1.028 0 0 0-.524 0c-.194.052-.37.185-.724.45L2.61 4.917Z" stroke="#8E8EEC" stroke-width=".771" stroke-linecap="round" stroke-linejoin="round"/></g></g></g><defs><clipPath id="clip0_2_1962"><path fill="#fff" transform="translate(.556 .806)" d="M0 0h12.333v12.333H0z"/></clipPath><clipPath id="clip1_2_1962"><path fill="#fff" transform="translate(.556 .806)" d="M0 0h12.333v12.333H0z"/></clipPath><clipPath id="clip2_2_1962"><path fill="#fff" transform="translate(.556 .806)" d="M0 0h12.333v12.333H0z"/></clipPath></defs></svg>