<svg width="13" height="13" fill="none" xmlns="http://www.w3.org/2000/svg"><g clip-path="url('#clip0_2_1989')"><g clip-path="url('#clip1_2_1989')"><path d="M11.347 6.244a4.369 4.369 0 0 1-5.938 4.078 1.467 1.467 0 0 0-.17-.06.474.474 0 0 0-.095-.013c-.052 0-.104.004-.156.011l-2.63.272c-.253.026-.377.039-.451-.006a.257.257 0 0 1-.12-.18c-.014-.085.046-.197.166-.418l.84-1.556c.07-.129.104-.192.12-.254a.462.462 0 0 0 .014-.167c-.005-.064-.033-.146-.088-.31a4.368 4.368 0 1 1 8.508-1.397Z" stroke="#8E8EEC" stroke-width=".771" stroke-linecap="round" stroke-linejoin="round"/></g></g><defs><clipPath id="clip0_2_1989"><path fill="#fff" transform="translate(.556 .334)" d="M0 0h12.333v12.333H0z"/></clipPath><clipPath id="clip1_2_1989"><path fill="#fff" transform="translate(.556 .334)" d="M0 0h12.333v12.333H0z"/></clipPath></defs></svg>