<svg width="35" height="22" fill="none" xmlns="http://www.w3.org/2000/svg"><g clip-path="url('#clip0_2_1833')"><g clip-path="url('#clip1_2_1833')"><path d="M28.125 16.471a.09.09 0 0 1-.09-.09V5.45c0-.043.03-.08.072-.089l1.886-.394a.091.091 0 0 1 .109.089V16.38a.09.09 0 0 1-.09.09h-1.887Zm-23.702.232c-.753 0-1.426-.186-2.018-.555a3.962 3.962 0 0 1-1.404-1.52c-.344-.642-.517-1.37-.517-2.188 0-.816.173-1.54.517-2.172a3.84 3.84 0 0 1 1.404-1.503c.592-.37 1.265-.555 2.018-.555.603 0 1.13.115 1.582.343.354.176.667.424.921.728.057.07.177.03.177-.06V5.255c0-.044.03-.08.072-.09l1.886-.394a.09.09 0 0 1 .109.089v11.556a.091.091 0 0 1-.09.09H7.403a.09.09 0 0 1-.09-.072l-.171-.882c-.015-.077-.117-.1-.168-.04a3.774 3.774 0 0 1-.905.782c-.42.273-.968.409-1.647.409Zm.436-1.83c.667 0 1.211-.223 1.63-.67.43-.456.646-1.04.646-1.746 0-.708-.215-1.286-.646-1.732-.419-.457-.963-.686-1.63-.686-.657 0-1.2.223-1.63.67-.43.446-.646 1.023-.646 1.73 0 .709.215 1.291.646 1.748.43.457.973.687 1.63.687Zm9.348 1.83c-.806 0-1.522-.174-2.146-.522a3.757 3.757 0 0 1-1.47-1.47c-.354-.63-.532-1.36-.532-2.188 0-.839.172-1.584.517-2.237.354-.654.839-1.16 1.452-1.52.624-.37 1.357-.555 2.196-.555.786 0 1.48.175 2.082.523.593.338 1.08.836 1.405 1.438.344.598.516 1.268.516 2.008 0 .12-.005.245-.016.376 0 .104-.003.212-.01.324a.09.09 0 0 1-.09.084h-5.905a.088.088 0 0 0-.09.096c.059.586.272 1.05.639 1.39.398.36.877.539 1.437.539.419 0 .769-.092 1.049-.277.264-.175.478-.416.62-.7a.093.093 0 0 1 .083-.052h1.92c.044 0 .081.031.088.075a.092.092 0 0 1-.003.041 3.9 3.9 0 0 1-.723 1.288c-.344.414-.774.74-1.29.98-.507.24-1.083.36-1.729.36Zm.017-6.793c-.506 0-.953.147-1.34.441-.364.265-.604.666-.72 1.2a.087.087 0 0 0 .086.106h3.783a.087.087 0 0 0 .088-.096c-.049-.488-.24-.88-.574-1.178-.354-.315-.796-.473-1.323-.473Zm8.973 6.793c-.807 0-1.523-.173-2.148-.522a3.757 3.757 0 0 1-1.468-1.47c-.356-.63-.533-1.36-.533-2.188 0-.838.172-1.584.517-2.237.355-.654.839-1.16 1.452-1.52.624-.37 1.357-.555 2.196-.555.785 0 1.48.175 2.082.524.593.337 1.08.835 1.404 1.437.345.599.517 1.268.517 2.008 0 .12-.005.245-.017.376 0 .105-.003.213-.01.324a.09.09 0 0 1-.09.084h-5.904a.089.089 0 0 0-.089.097c.058.585.27 1.048.638 1.39.398.358.877.538 1.437.538.42 0 .77-.092 1.05-.277a1.81 1.81 0 0 0 .62-.7.093.093 0 0 1 .083-.052h1.918c.06 0 .104.059.085.116a3.88 3.88 0 0 1-.723 1.289c-.352.42-.792.754-1.291.98-.506.24-1.082.359-1.727.359Zm.016-6.793c-.506 0-.953.147-1.34.441-.364.266-.604.666-.721 1.2a.09.09 0 0 0 .018.074c.016.02.042.033.068.032h3.784c.024 0 .048-.01.065-.028a.09.09 0 0 0 .023-.067c-.05-.49-.24-.882-.574-1.179-.355-.315-.796-.473-1.323-.473Zm9.596 6.564a1.4 1.4 0 0 0 1.391-1.407 1.4 1.4 0 0 0-1.39-1.408c-.37 0-.725.15-.987.414a1.406 1.406 0 0 0-.405.993c-.001.372.144.73.405.994.262.263.616.413.986.414Z" fill="#9F9EAD"/></g></g><defs><clipPath id="clip0_2_1833"><path fill="#fff" transform="translate(.256 .678)" d="M0 0h34.431v20.556H0z"/></clipPath><clipPath id="clip1_2_1833"><path fill="#fff" transform="translate(.256 .678)" d="M0 0h34.431v20.556H0z"/></clipPath></defs></svg>