<svg width="35" height="22" fill="none" xmlns="http://www.w3.org/2000/svg"><g clip-path="url('#clip0_2_1871')"><g clip-path="url('#clip1_2_1871')"><path d="M3.844 14.443v1.151h1.412c0 .234-.06.464-.174.667-.12.203-.296.364-.508.465a1.8 1.8 0 0 1-.807.165 1.582 1.582 0 0 1-.906-.256 1.628 1.628 0 0 1-.585-.742 3.029 3.029 0 0 1-.206-1.178c-.01-.4.061-.798.21-1.168a1.65 1.65 0 0 1 .59-.73 1.56 1.56 0 0 1 .89-.253c.165-.001.329.02.487.064.14.041.274.106.393.191.113.082.21.184.288.3.081.125.142.26.181.405h1.567a2.49 2.49 0 0 0-.314-.937 2.634 2.634 0 0 0-.64-.74 2.963 2.963 0 0 0-.898-.481 3.424 3.424 0 0 0-1.094-.17 3.37 3.37 0 0 0-1.27.238c-.388.155-.74.391-1.03.693-.304.32-.54.698-.69 1.114-.172.48-.257.988-.248 1.498 0 .726.137 1.351.412 1.877.26.506.659.926 1.15 1.21 1.011.542 2.217.57 3.251.076A2.58 2.58 0 0 0 6.364 16.9c.257-.437.385-.96.384-1.568v-.89H3.844Zm19.502 3.72v-6.877h4.687v1.273h-3.14v1.527h2.54v1.273h-2.54v1.532h3.148v1.272h-4.695Zm9.236-4.859a.822.822 0 0 0-.32-.605c-.19-.146-.455-.217-.79-.217a1.492 1.492 0 0 0-.566.09.784.784 0 0 0-.348.254.623.623 0 0 0-.121.365.572.572 0 0 0 .072.3c.054.09.129.167.217.223.105.069.218.124.336.164.137.047.278.088.421.119l.601.14c.295.063.582.157.858.28.238.108.459.252.653.428.177.163.319.36.415.582.1.24.15.497.146.756a1.89 1.89 0 0 1-.321 1.104 2.05 2.05 0 0 1-.921.716 3.73 3.73 0 0 1-1.445.252c-.5.01-.998-.077-1.466-.257a2.109 2.109 0 0 1-.973-.773c-.23-.344-.352-.773-.362-1.287h1.49c.004.406.26.768.64.906.209.08.432.12.656.115.205.005.41-.03.604-.1a.91.91 0 0 0 .393-.273.661.661 0 0 0 .142-.408.562.562 0 0 0-.129-.365.99.99 0 0 0-.375-.256 3.76 3.76 0 0 0-.625-.195l-.732-.178c-.584-.14-1.044-.36-1.382-.662-.337-.302-.504-.71-.502-1.225-.01-.396.108-.784.338-1.105.24-.327.563-.583.936-.74.43-.183.894-.273 1.361-.265.465-.01.926.08 1.353.266.363.158.674.415.899.742.216.327.33.711.326 1.105l-1.479.004Zm-10.338 4.859h-1.53v-5.228l-.157-.002-1.546 5.23h-1.529l-1.503-5.23-.196.002v5.228h-1.53v-6.877h2.6l1.314 4.61h.16l1.312-4.61h2.605v6.877Zm-10.4 0h1.658l-2.298-6.876h-2.1l-2.3 6.876h1.66l.447-1.508h2.486l.448 1.508Zm-2.578-2.707.746-2.52h.28l.75 2.52H9.266ZM7.185 3.309h1.546v6.876H7.185V3.31Zm8.89 3.438c0 .755-.143 1.393-.428 1.914a2.97 2.97 0 0 1-1.16 1.201 3.482 3.482 0 0 1-3.293 0 2.981 2.981 0 0 1-1.16-1.203c-.284-.527-.427-1.165-.427-1.915s.142-1.39.427-1.919a2.974 2.974 0 0 1 1.157-1.198 3.49 3.49 0 0 1 3.293 0c.493.28.895.698 1.16 1.201.284.525.427 1.165.427 1.919m-1.574 0a3.049 3.049 0 0 0-.202-1.185 1.589 1.589 0 0 0-.574-.73 1.676 1.676 0 0 0-1.764 0c-.26.181-.46.435-.576.73a3.533 3.533 0 0 0 0 2.37c.115.295.316.55.576.73a1.676 1.676 0 0 0 1.764 0c.26-.18.46-.435.574-.73.145-.378.214-.78.202-1.185ZM3.936 7.789l.794 2.397h1.697l-.883-2.582h-1.2L4.27 7.38c.229-.045.62-.114.966-.35.493-.338.79-.896.794-1.495.01-.408-.092-.81-.296-1.163-.2-.34-.495-.614-.849-.786a2.937 2.937 0 0 0-1.328-.274H.798v6.873h1.548V7.79h1.59Zm-.03-1.423c-.21.077-.434.114-.658.107h-.902V4.571h.899c.225-.006.448.033.657.113a.835.835 0 0 1 .4.338.918.918 0 0 1 .136.514.879.879 0 0 1-.135.506.802.802 0 0 1-.397.324Zm12.315-3.057v1.276h2.657l.073.223c-.225.044-.605.112-.946.338v5.042h1.53V4.58h1.78V3.305l-5.094.004Z" fill="#9F9EAD"/></g></g><defs><clipPath id="clip0_2_1871"><path fill="#fff" transform="translate(.24 .678)" d="M0 0h33.917v20.556H0z"/></clipPath><clipPath id="clip1_2_1871"><path fill="#fff" transform="translate(.24 .678)" d="M0 0h33.917v20.556H0z"/></clipPath></defs></svg>