<svg width="74" height="22" fill="none" xmlns="http://www.w3.org/2000/svg"><g clip-path="url('#clip0_2_1823')"><g clip-path="url('#clip1_2_1823')"><path d="M3.472 10.336a.252.252 0 0 0-.43.048L.861 14.759a.262.262 0 0 0 .232.378H4.13a.25.25 0 0 0 .234-.148c.654-1.348.258-3.42-.892-4.653Z" fill="url('#paint0_linear_2_1823')"/><path d="M5.072 6.363a5.784 5.784 0 0 0-.336 5.696l1.472 2.929a.261.261 0 0 0 .232.146h3.037a.269.269 0 0 0 .224-.377L5.515 6.363a.246.246 0 0 0-.443 0Zm64.152 4.663 2.205 4.11h1.958V7.8H71.83v4.735l-.59-1.373-1.77-3.362h-2.46v7.337h1.558V9.541l.657 1.485ZM57.095 7.799h-1.703v7.337h1.703V7.8Zm-3.67 5.168c0-1.285-.677-1.887-2.594-2.3-1.057-.236-1.312-.47-1.312-.81 0-.424.377-.603 1.074-.603.847 0 1.683.257 2.473.615V8.19a5.566 5.566 0 0 0-2.419-.502c-1.893 0-2.872.826-2.872 2.178 0 1.077.5 1.942 2.46 2.322 1.169.245 1.414.435 1.414.826 0 .391-.245.625-1.074.625a6.032 6.032 0 0 1-2.839-.77v1.765c.59.29 1.369.613 2.821.613 2.048 0 2.86-.915 2.86-2.277m-7.083-.003c0-1.285-.672-1.887-2.593-2.3-1.057-.236-1.314-.47-1.314-.81 0-.424.38-.603 1.075-.603.846 0 1.68.257 2.47.615V8.19a5.57 5.57 0 0 0-2.418-.502c-1.892 0-2.872.826-2.872 2.178 0 1.077.501 1.942 2.46 2.322 1.17.245 1.415.435 1.415.826 0 .391-.245.625-1.075.625a6.034 6.034 0 0 1-2.84-.77v1.765c.592.29 1.371.613 2.823.613 2.048 0 2.86-.915 2.86-2.277m-17.153.58V7.8h-1.714v7.337h3.501l.552-1.586h-2.339Zm-5.024 1.586V9.386h2.025V7.799H20.54v1.586h1.893v5.752h1.715ZM18.054 7.8h-2.246l-2.553 7.337h1.954l.364-1.235c.89.262 1.837.262 2.727 0l.361 1.236h1.948l-2.555-7.338Zm-1.123 4.78a3.33 3.33 0 0 1-.94-.135l.94-3.202.94 3.202c-.305.09-.622.135-.94.135Zm20.064-4.78h-2.247l-2.552 7.337h1.948l.363-1.235c.89.262 1.837.262 2.727 0l.361 1.236h1.949l-2.55-7.338Zm-1.123 4.78c-.319 0-.635-.045-.941-.135l.94-3.202.94 3.202a3.29 3.29 0 0 1-.94.135Zm27.36-4.78h-2.246l-2.553 7.337h1.948l.362-1.235a4.82 4.82 0 0 0 2.728 0l.361 1.236h1.95l-2.55-7.338Zm-1.122 4.78c-.32 0-.636-.045-.94-.135l.94-3.202.94 3.202a3.33 3.33 0 0 1-.94.135Z" fill="#9F9EAD"/></g></g><defs><clipPath id="clip0_2_1823"><path fill="#fff" transform="translate(.833 .678)" d="M0 0h72.972v20.556H0z"/></clipPath><clipPath id="clip1_2_1823"><path fill="#fff" transform="translate(.833 .678)" d="M0 0h72.972v20.556H0z"/></clipPath><linearGradient id="paint0_linear_2_1823" x1="3.848" y1="10.236" x2=".769" y2="14.489" gradientUnits="userSpaceOnUse"><stop stop-color="#7D7C8C"/><stop offset="1" stop-color="#9F9EAD"/></linearGradient></defs></svg>