<svg width="70" height="22" fill="none" xmlns="http://www.w3.org/2000/svg"><g clip-path="url('#clip0_2_1841')"><g clip-path="url('#clip1_2_1841')"><path d="M10.374 20.753C4.813 20.753.32 16.277.32 10.735.32 5.193 4.813.717 10.374.717c5.562 0 10.06 4.476 10.06 10.018 0 5.542-4.498 10.018-10.06 10.018ZM15.43 4.414h-2.112l-.98 4.315h-.053l-.982-4.315h-1.8L8.52 8.73h-.053l-.976-4.315H5.375l1.959 6.682H5.375l1.959 6.678h2.063l.93-4.111h.052l.925 4.11h2.062l1.963-6.677h-1.963l2.064-6.681Zm-4.175 6.678H9.45l-.981 4.315h-.052l-.977-4.315h1.958l.93-4.111h.052l.929 4.11h1.958l-.981 4.316-1.03-4.315Zm24.96 2.213c0 .871-.93 1.18-1.86 1.18-.77 0-1.543-.205-1.543-.875 0-.356.257-.613.72-.665-.258-.104-.415-.31-.415-.566 0-.309.21-.565.52-.618-.416-.204-.62-.513-.62-.974 0-.722.567-1.131 1.391-1.131.31 0 .62.105.825.204l.31-.717c.31.052.466.256.466.513 0 .256-.156.46-.466.513.156.205.257.414.257.67 0 .77-.567 1.127-1.392 1.127-.152 0-.31 0-.462-.048-.157.048-.21.152-.21.257 0 .152.158.204.31.204h.93c.824 0 1.29.309 1.238.927ZM35.08 10.84a.618.618 0 0 0-.62-.618.615.615 0 1 0 0 1.231c.342.001.618-.274.62-.613Zm.463 2.567c0-.205-.153-.361-.515-.361h-.982c-.31 0-.514.156-.514.413 0 .36.362.514.877.514.619 0 1.081-.153 1.134-.566Zm-7.634-4.724-1.134 4.415h-.31c-.362 0-.62-.152-.667-.513l-.672-2.776-.776 3.289h-.872l-1.14-4.415h.83l.772 3.336.771-3.336h.825l.83 3.336.771-3.336h.772Zm11.76 2.053v2.362h-.158c-.41 0-.667-.256-.667-.666v-1.44c0-.36-.21-.617-.571-.617-.41 0-.72.256-.72.874v1.797h-.824V8.268h.825v2.006c.152-.414.566-.618 1.029-.618.567 0 1.034.409 1.086 1.079Zm-8.924.874h-2.116c.052.618.362.975.828.975.258 0 .463-.1.567-.257a.54.54 0 0 1 .463-.257h.31c-.105.718-.72 1.131-1.34 1.131-.929 0-1.548-.617-1.548-1.749 0-1.078.62-1.744 1.597-1.744.929 0 1.395.618 1.395 1.436 0 .156-.052.36-.157.465Zm-.62-.465c0-.461-.1-.87-.62-.87-.41 0-.72.356-.771.87h1.39Zm2.373-2.363a.515.515 0 0 1-1.03 0c0-.309.205-.513.515-.513.257 0 .515.204.515.513Zm-.93.98h.825v3.336h-.048c-.466 0-.776-.309-.776-.77V9.76Zm32.183 1.848h-2.115c.052.618.362.98.824.98.258 0 .467-.106.568-.257a.542.542 0 0 1 .466-.257h.31c-.105.717-.725 1.126-1.344 1.126-.925 0-1.544-.613-1.544-1.744 0-1.079.62-1.75 1.597-1.75.929 0 1.391.619 1.391 1.44 0 .153 0 .362-.153.462Zm-.62-.461c0-.461-.103-.874-.618-.874-.41 0-.72.36-.773.874h1.392Zm-2.734-.409v2.362h-.153c-.414 0-.671-.256-.671-.67v-1.435c0-.36-.205-.617-.568-.617-.414 0-.723.256-.723.874v1.797h-.825V8.273h.825v2.002c.157-.41.57-.614 1.033-.614.62 0 1.03.409 1.082 1.078Zm-18.102 1.593.105.613a1.256 1.256 0 0 1-.772.256c-.62 0-1.086-.304-1.086-1.027v-1.796h-.258c-.205 0-.31-.104-.31-.257v-.36h.567v-.822h.877v.822h.93v.104c0 .308-.205.513-.516.513h-.466v1.697c0 .309.157.461.414.461a.668.668 0 0 0 .515-.204Zm27.18-.158c0 .671-.62 1.027-1.392 1.027-.724 0-1.291-.304-1.392-.922 0 0 .153-.052.358-.052.21 0 .362.052.519.204.1.157.31.209.515.209.31 0 .566-.104.566-.413 0-.718-1.857-.152-1.857-1.44 0-.717.567-1.079 1.29-1.079.773 0 1.24.413 1.287.98 0 0-.1.051-.304.051a.543.543 0 0 1-.468-.26c-.104-.153-.257-.205-.462-.205-.31 0-.519.156-.519.413 0 .718 1.858.1 1.858 1.488Zm-3.093-2.466h.205l-.053.822c-.1-.052-.257-.052-.362-.052-.462 0-.824.309-.824.98V13.1h-.1a.704.704 0 0 1-.725-.717V9.76h.672l.1.822c.158-.513.52-.875 1.087-.875ZM48.279 8.682 47.145 13.1h-.31c-.309 0-.618-.156-.671-.513l-.672-2.775-.772 3.288h-.877l-1.134-4.42h.825l.824 3.342.776-3.341h.825l.772 3.34.772-3.34h.776Zm6.705 2.775c0 .666.262 1.131.776 1.131.205 0 .362-.052.463-.204a.542.542 0 0 1 .467-.26c.152 0 .31.05.31.05-.053.618-.52 1.027-1.292 1.027-.981 0-1.601-.665-1.601-1.744s.567-1.75 1.548-1.75c.725 0 1.24.362 1.344 1.032l-.724.205c-.052-.361-.257-.618-.62-.618-.514 0-.772.461-.671 1.131Zm-4.022-.67v2.414c-.362 0-.672-.204-.72-.561-.157.357-.567.561-.981.561-.567 0-1.03-.356-1.03-.974 0-.666.567-1.079 1.597-1.079h.362v-.36c0-.31-.157-.514-.515-.514-.31 0-.519.204-.519.513l-.772-.1c.053-.67.62-1.027 1.34-1.027.828 0 1.29.41 1.238 1.127Zm-.772 1.079v-.257h-.257c-.568 0-.877.157-.877.514 0 .308.205.465.515.465.31 0 .671-.204.671-.722h-.052Zm3.608.466.104.613a1.25 1.25 0 0 1-.772.256c-.672 0-1.086-.304-1.086-1.027v-1.796h-.31c-.205 0-.31-.104-.31-.257v-.36h.568v-.822h.828v.822h.925v.104c0 .308-.205.513-.515.513h-.462v1.697c0 .309.153.461.41.461.209 0 .362-.053.62-.204Z" fill="#9F9EAD"/></g></g><defs><clipPath id="clip0_2_1841"><path fill="#fff" transform="translate(.142 .678)" d="M0 0h69.375v20.556H0z"/></clipPath><clipPath id="clip1_2_1841"><path fill="#fff" transform="translate(.142 .678)" d="M0 0h69.375v20.556H0z"/></clipPath></defs></svg>