<svg width="62" height="22" fill="none" xmlns="http://www.w3.org/2000/svg"><g clip-path="url('#clip0_2_1863')"><g clip-path="url('#clip1_2_1863')"><path d="M25.692 6.824v7.821h-1.358V8.508h-.019l-2.426 6.137h-.905l-2.48-6.137h-.018v6.137h-1.25V6.824h1.956l2.244 5.793h.037l2.372-5.793h1.847Zm1.122.597c0-.216.073-.398.236-.542a.811.811 0 0 1 .561-.218c.236 0 .434.073.58.218a.751.751 0 0 1 .235.542.688.688 0 0 1-.235.544.825.825 0 0 1-.58.217.752.752 0 0 1-.562-.217c-.144-.163-.235-.345-.235-.544Zm1.466 1.612v5.612h-1.32V9.033h1.32Zm4.002 4.652c.199 0 .416-.036.651-.144a2.83 2.83 0 0 0 .652-.363v1.232c-.224.13-.469.222-.724.272a4.48 4.48 0 0 1-.887.09c-.833 0-1.502-.253-2.01-.779-.525-.525-.778-1.194-.778-1.991 0-.905.271-1.648.797-2.226.525-.58 1.267-.87 2.244-.87.254 0 .508.036.743.09.254.055.452.145.597.218v1.267a2.593 2.593 0 0 0-.615-.344 2.08 2.08 0 0 0-.652-.127c-.525 0-.941.163-1.267.507-.327.344-.471.797-.471 1.376 0 .561.163 1.014.471 1.322.308.307.724.47 1.248.47Zm5.051-4.742c.109 0 .199 0 .29.017.09.018.163.036.217.055v1.34a.81.81 0 0 0-.308-.146c-.145-.036-.29-.072-.489-.072-.326 0-.597.145-.814.417-.218.271-.344.688-.344 1.267v2.824h-1.322V9.033h1.322v.887h.018c.112-.286.3-.536.543-.724.264-.17.573-.259.887-.254Zm.58 2.987c0-.924.271-1.666.778-2.21.525-.542 1.249-.814 2.172-.814.87 0 1.558.254 2.046.779.489.524.742 1.23.742 2.118 0 .905-.271 1.63-.778 2.172-.525.544-1.231.815-2.136.815-.87 0-1.558-.253-2.064-.76-.507-.526-.76-1.23-.76-2.1Zm1.375-.055c0 .58.127 1.032.399 1.34.271.307.651.47 1.14.47.471 0 .851-.145 1.104-.47.254-.308.38-.76.38-1.376 0-.597-.126-1.05-.38-1.376-.253-.308-.633-.471-1.086-.471-.489 0-.85.163-1.122.49-.308.343-.435.796-.435 1.393Zm6.337-1.358c0 .181.054.344.18.453.128.108.381.236.798.398.525.218.904.453 1.104.707.217.271.326.579.326.959 0 .525-.2.941-.615 1.267-.4.326-.96.471-1.648.471a4.31 4.31 0 0 1-.779-.09 3.12 3.12 0 0 1-.724-.218V13.16c.235.162.507.307.778.398.272.09.525.145.761.145.29 0 .525-.037.652-.127.145-.09.217-.218.217-.416 0-.181-.072-.326-.217-.471-.146-.127-.435-.271-.833-.434-.49-.2-.833-.435-1.032-.688-.2-.254-.308-.58-.308-.978 0-.507.2-.923.598-1.25.398-.325.923-.488 1.557-.488.199 0 .416.018.651.072.236.054.453.109.615.163v1.286a3.812 3.812 0 0 0-.615-.308 1.907 1.907 0 0 0-.688-.127c-.253 0-.452.054-.579.145-.127.126-.199.253-.199.434Zm2.969 1.413c0-.924.272-1.666.778-2.21.526-.542 1.25-.814 2.173-.814.869 0 1.557.254 2.046.779.489.524.742 1.23.742 2.118 0 .905-.272 1.63-.779 2.172-.525.544-1.23.815-2.136.815-.869 0-1.556-.253-2.063-.76-.49-.526-.761-1.23-.761-2.1Zm1.376-.055c0 .58.127 1.032.398 1.34.272.307.652.47 1.14.47.472 0 .852-.145 1.105-.47.253-.308.38-.76.38-1.376 0-.597-.127-1.05-.38-1.376-.253-.308-.633-.471-1.086-.471-.489 0-.85.163-1.123.49-.29.343-.434.796-.434 1.393Zm8.762-1.756H56.76v4.526h-1.34V10.12h-.941V9.033h.941v-.779c0-.579.2-1.067.58-1.448.38-.38.869-.562 1.466-.562.163 0 .308.019.435.019a.87.87 0 0 1 .326.072v1.14a2.249 2.249 0 0 0-.236-.09 1.206 1.206 0 0 0-.38-.054c-.271 0-.49.09-.634.253-.144.163-.217.435-.217.76v.671h1.973V7.747l1.322-.398v1.666h1.34v1.086h-1.34v2.625c0 .344.073.58.181.724.127.145.326.217.598.217a.906.906 0 0 0 .272-.054.933.933 0 0 0 .27-.127v1.087c-.09.054-.217.09-.415.127a3.134 3.134 0 0 1-.58.054c-.561 0-.978-.145-1.249-.435-.272-.289-.417-.742-.417-1.34l.018-2.86ZM6.465 4.217H.273v6.192h6.192V4.217Zm6.844 0H7.117v6.192h6.192V4.217ZM6.465 11.06H.273v6.192h6.192V11.06Zm6.844 0H7.117v6.192h6.192V11.06Z" fill="#9F9EAD"/></g></g><defs><clipPath id="clip0_2_1863"><path fill="#fff" transform="translate(.123 .678)" d="M0 0h61.667v20.556H0z"/></clipPath><clipPath id="clip1_2_1863"><path fill="#fff" transform="translate(.123 .678)" d="M0 0h61.667v20.556H0z"/></clipPath></defs></svg>