<svg width="47" height="22" fill="none" xmlns="http://www.w3.org/2000/svg"><g clip-path="url('#clip0_2_1847')"><path d="M39.151 13.832h-1.598V7.515h1.598v6.317Zm5.442-5.861c.3.189.56.436.761.728.382.537.573 1.188.573 1.951 0 .96-.27 1.73-.809 2.311-.538.582-1.252.871-2.142.871h-2.462V7.516h2.105c.833 0 1.491.151 1.974.455Zm-2.481 4.431h.686c1.02 0 1.532-.567 1.532-1.704 0-.56-.132-.991-.395-1.295-.264-.304-.64-.458-1.128-.458h-.695v3.457ZM2.537 3.565l5.178-1.353L9.5 4.039l1.813-1.797 5.155 1.437 1.344 5.218-1.814 1.798 1.784 1.827-1.427 5.196-5.177 1.354-1.784-1.829-1.814 1.798-5.156-1.437-1.342-5.218 1.814-1.798L1.11 8.76l1.427-5.195Zm4.728.286-2.727.713 2.18 2.233 1.74-1.724L7.265 3.85Zm4.472.037-1.213 1.201 1.712 1.754 2.215-2.198-2.715-.757h.001ZM2.744 8.333l1.192 1.222 1.74-1.724-2.18-2.234-.752 2.736Zm12.732-2.638L13.26 7.892l1.712 1.753 1.211-1.202-.707-2.748Zm-5.994.428-1.74 1.724L9.455 9.6l1.739-1.725-1.71-1.752h-.001ZM6.7 8.88l-1.74 1.725 1.712 1.753 1.74-1.725L6.7 8.881Zm5.517.045L10.48 10.65l1.71 1.753 1.74-1.725-1.712-1.753ZM3.92 11.637 2.708 12.84l.707 2.747 2.216-2.196-1.711-1.754Zm5.517.045-1.739 1.725L9.41 15.16l1.738-1.724-1.711-1.754Zm5.517.047-1.738 1.724 2.18 2.233.751-2.736-1.193-1.221ZM6.656 14.44 4.44 16.638l2.715.757 1.213-1.202-1.712-1.753Zm5.517.045-1.739 1.724 1.193 1.222 2.727-.713-2.181-2.233Zm10.56-6.97c.909 0 1.551.157 1.927.473.49.41.734.97.734 1.676 0 .682-.22 1.229-.659 1.639-.388.365-1 .548-1.832.548h-.687v1.981h-1.532V7.516h2.05Zm-.516 2.907h.648c.664 0 .997-.246.997-.735 0-.496-.355-.744-1.062-.744h-.584v1.48Zm4.2-2.908h1.598v4.887h1.852v1.43h-3.45V7.515Zm4.07 6.317 2.51-6.317h1.267l2.491 6.317h-1.738l-.301-.918h-2.18l-.33.918h-1.72Zm3.148-4.356-.658 2.16h1.306l-.648-2.16Z" fill="#9F9EAD"/></g><defs><clipPath id="clip0_2_1847"><path fill="#fff" transform="translate(.967 .678)" d="M0 0h45.222v20.556H0z"/></clipPath></defs></svg>