<svg width="14" height="13" fill="none" xmlns="http://www.w3.org/2000/svg"><g clip-path="url('#clip0_2_2002')"><g clip-path="url('#clip1_2_2002')"><g clip-path="url('#clip2_2_2002')"><path d="M9.57 10.612h-.103c-.864 0-1.295 0-1.625-.168a1.542 1.542 0 0 1-.673-.674C7 9.44 7 9.008 7 8.145V4.856c0-.863 0-1.295.168-1.625.148-.29.383-.525.673-.673.33-.168.762-.168 1.626-.168h.102m0 8.222a1.028 1.028 0 1 0 2.056 0 1.028 1.028 0 0 0-2.056 0Zm0-8.222a1.028 1.028 0 1 0 2.056 0 1.028 1.028 0 0 0-2.056 0ZM4.431 6.5h5.138m-5.138 0a1.028 1.028 0 1 1-2.056 0 1.028 1.028 0 0 1 2.056 0Zm5.138 0a1.028 1.028 0 1 0 2.056 0 1.028 1.028 0 0 0-2.056 0Z" stroke="#8E8EEC" stroke-width=".771" stroke-linecap="round" stroke-linejoin="round"/></g></g></g><defs><clipPath id="clip0_2_2002"><path fill="#fff" transform="translate(.833 .334)" d="M0 0h12.333v12.333H0z"/></clipPath><clipPath id="clip1_2_2002"><path fill="#fff" transform="translate(.833 .334)" d="M0 0h12.333v12.333H0z"/></clipPath><clipPath id="clip2_2_2002"><path fill="#fff" transform="translate(.833 .334)" d="M0 0h12.333v12.333H0z"/></clipPath></defs></svg>