<svg width="11" height="11" fill="none" xmlns="http://www.w3.org/2000/svg"><g clip-path="url('#clip0_2_2165')"><g clip-path="url('#clip1_2_2165')"><path d="m6.178 7.627.386 1.048a.308.308 0 0 0 .416.173l2.537-1.125a.302.302 0 0 0 .172-.35L8.571 2.969a.306.306 0 0 0-.09-.15c-.043-.04-.105-.06-.157-.077l-1.362-.405a.307.307 0 0 0-.348.228l-.193.923a6.657 6.657 0 0 0-.963-.064 6.594 6.594 0 0 0-.963.064l-.2-.924a.307.307 0 0 0-.348-.227l-1.354.404c-.064.024-.114.037-.158.078a.306.306 0 0 0-.09.15L1.228 7.372a.303.303 0 0 0 .172.35l2.536 1.125a.308.308 0 0 0 .417-.173l.386-1.048m2.536-.284c-.71.239-1.203.323-1.817.32-.613.003-1.105-.085-1.817-.32M4.474 5.8c0 .21-.17.386-.378.386a.385.385 0 0 1-.379-.386c0-.209.17-.385.379-.385s.378.176.378.385Zm2.726 0c0 .21-.17.386-.379.386a.385.385 0 0 1-.378-.386c0-.209.17-.385.378-.385.21 0 .379.176.379.385Z" stroke="#F0F0F9" stroke-width=".385" stroke-linecap="round" stroke-linejoin="round"/></g></g><defs><clipPath id="clip0_2_2165"><path fill="#fff" transform="translate(.833 .79)" d="M0 0h9.25v9.25H0z"/></clipPath><clipPath id="clip1_2_2165"><path fill="#fff" transform="translate(.833 .79)" d="M0 0h9.25v9.25H0z"/></clipPath></defs></svg>