<svg width="13" height="13" fill="none" xmlns="http://www.w3.org/2000/svg"><g clip-path="url('#clip0_2_1896')"><g clip-path="url('#clip1_2_1896')"><g clip-path="url('#clip2_2_1896')"><path d="m1.84 11.08 2.852-1.098c.182-.07.274-.105.36-.15.075-.041.147-.088.215-.14.077-.06.146-.13.284-.268l5.014-5.013M1.84 11.08l1.097-2.852c.07-.183.105-.274.151-.36a1.54 1.54 0 0 1 .14-.215c.06-.077.13-.146.268-.284l5.013-5.014M1.84 11.08l1.058-2.75m7.667-3.92.782-.782a1.454 1.454 0 0 0-2.055-2.055l-.783.782m2.056 2.056L8.509 2.355M1.84 11.08l2.75-1.058M3.382 4.912l.77-.77m3.855 5.395.77-.77M6.98 3.885 4.444 1.349c-.102-.102-.153-.152-.212-.171a.257.257 0 0 0-.159 0c-.058.019-.109.07-.21.171L1.873 3.337c-.102.102-.152.152-.171.211a.257.257 0 0 0 0 .16c.019.058.07.109.171.21l2.48 2.48m4.681-.457 2.536 2.535c.102.102.152.152.171.211a.257.257 0 0 1 0 .16c-.019.058-.07.109-.171.21l-1.988 1.989c-.102.101-.153.152-.212.17a.257.257 0 0 1-.159 0c-.058-.018-.109-.069-.21-.17L6.464 8.51" stroke="#51A9F5" stroke-width=".771" stroke-linecap="round" stroke-linejoin="round"/></g></g></g><defs><clipPath id="clip0_2_1896"><path fill="#fff" transform="translate(.556 .24)" d="M0 0h12.333v12.333H0z"/></clipPath><clipPath id="clip1_2_1896"><path fill="#fff" transform="translate(.556 .24)" d="M0 0h12.333v12.333H0z"/></clipPath><clipPath id="clip2_2_1896"><path fill="#fff" transform="translate(.556 -.018)" d="M0 0h12.333v12.847H0z"/></clipPath></defs></svg>