<svg width="11" height="11" fill="none" xmlns="http://www.w3.org/2000/svg"><path d="m5.5 2.521-.248.238a.344.344 0 0 0 .495 0L5.5 2.521ZM3.209 7.526a.344.344 0 0 0-.438.532l.438-.532Zm-2.136-1.38a.344.344 0 1 0 .604-.33l-.604.33Zm.187-1.958c0-.986.557-1.812 1.318-2.16.738-.338 1.731-.249 2.674.731l.495-.476C4.63 1.12 3.33.928 2.292 1.403 1.277 1.867.572 2.945.572 4.188h.688Zm2.634 4.75c.236.185.488.382.743.531.255.15.547.27.863.27v-.687c-.142 0-.309-.055-.516-.176a6.075 6.075 0 0 1-.664-.478l-.426.54Zm3.212 0c.653-.516 1.49-1.106 2.145-1.845.667-.751 1.176-1.683 1.176-2.905H9.74c0 1.007-.413 1.783-1.003 2.449-.603.678-1.362 1.213-2.057 1.76l.426.54Zm3.321-4.75c0-1.243-.704-2.321-1.719-2.785-1.037-.475-2.336-.283-3.456.88l.495.476c.944-.98 1.936-1.069 2.675-.731.76.348 1.318 1.174 1.318 2.16h.687ZM6.68 8.398c-.241.19-.456.357-.664.478-.207.12-.374.176-.516.176v.688c.316 0 .608-.122.863-.27.256-.15.507-.347.742-.532l-.425-.54Zm-2.36 0c-.365-.288-.735-.563-1.111-.872l-.438.532c.38.313.783.611 1.123.88l.426-.54Zm-2.643-2.58a3.324 3.324 0 0 1-.417-1.63H.573c0 .75.192 1.396.5 1.959l.604-.33Z" fill="#F24E1E"/></svg>