<svg width="13" height="14" fill="none" xmlns="http://www.w3.org/2000/svg"><g clip-path="url('#clip0_2_1975')"><g clip-path="url('#clip1_2_1975')"><g clip-path="url('#clip2_2_1975')"><path d="m6.778 11.598-.052-.077c-.357-.536-.535-.804-.77-.997-.21-.172-.45-.301-.709-.38-.292-.088-.614-.088-1.257-.088h-.707c-.575 0-.863 0-1.083-.112a1.028 1.028 0 0 1-.45-.45c-.111-.22-.111-.507-.111-1.082v-4.42c0-.575 0-.863.112-1.083.098-.194.256-.35.45-.45.219-.111.507-.111 1.082-.111h.206c1.151 0 1.727 0 2.166.224.387.197.702.511.899.898.224.44.224 1.015.224 2.167m0 5.96v-5.96m0 5.96.051-.076c.357-.536.536-.804.771-.997.209-.172.45-.301.708-.38.293-.088.614-.088 1.258-.088h.706c.576 0 .864 0 1.083-.112.194-.099.351-.256.45-.45.112-.22.112-.507.112-1.082v-4.42c0-.575 0-.863-.112-1.083a1.028 1.028 0 0 0-.45-.45c-.22-.111-.507-.111-1.083-.111h-.205c-1.151 0-1.727 0-2.167.224a2.056 2.056 0 0 0-.898.898c-.224.44-.224 1.015-.224 2.167" stroke="#8E8EEC" stroke-width=".771" stroke-linecap="round" stroke-linejoin="round"/></g></g></g><defs><clipPath id="clip0_2_1975"><path fill="#fff" transform="translate(.611 .806)" d="M0 0h12.333v12.333H0z"/></clipPath><clipPath id="clip1_2_1975"><path fill="#fff" transform="translate(.611 .806)" d="M0 0h12.333v12.333H0z"/></clipPath><clipPath id="clip2_2_1975"><path fill="#fff" transform="translate(.611 .806)" d="M0 0h12.333v12.333H0z"/></clipPath></defs></svg>